<svg width="24" height="24" viewBox="0 0 24 24" fill="none" xmlns="http://www.w3.org/2000/svg">
<rect width="24" height="24" fill="#F5F5F5"/>
<g id="Desktop" clip-path="url(#clip0_0_1)">
<rect width="1440" height="8256" transform="translate(-1164 -8208)" fill="white"/>
<g id="Frame">
<g id="Frame_2">
<g id="Frame_3">
<g id="Frame_4">
<path id="Rectangle" d="M-1164 -24H276V48H-1164V-24Z" fill="#F5F5F2"/>
<g id="Frame_5">
<g id="Frame_6">
<g id="IMAGE">
<path id="Vector" d="M16.5 6H13.5C12.9477 6 12.5 6.44772 12.5 7V10H16.5C16.6137 9.99748 16.7216 10.0504 16.7892 10.1419C16.8568 10.2334 16.8758 10.352 16.84 10.46L16.1 12.66C16.0318 12.8619 15.8431 12.9984 15.63 13H12.5V20.5C12.5 20.7761 12.2761 21 12 21H9.5C9.22386 21 9 20.7761 9 20.5V13H7.5C7.22386 13 7 12.7761 7 12.5V10.5C7 10.2239 7.22386 10 7.5 10H9V7C9 4.79086 10.7909 3 13 3H16.5C16.7761 3 17 3.22386 17 3.5V5.5C17 5.77614 16.7761 6 16.5 6Z" fill="#2A2C1F"/>
</g>
</g>
</g>
</g>
</g>
</g>
</g>
</g>
<defs>
<clipPath id="clip0_0_1">
<rect width="1440" height="8256" fill="white" transform="translate(-1164 -8208)"/>
</clipPath>
</defs>
</svg>
